<svg width="513" height="631" viewBox="0 0 513 631" fill="none" xmlns="http://www.w3.org/2000/svg">
<g opacity="0.8" clip-path="url(#clip0_762_3308)">
<g opacity="0.12">
<path d="M222.293 132.597H169.976L143.812 177.908L169.976 223.218H222.293L248.457 177.908L222.293 132.597Z" fill="url(#paint0_linear_762_3308)"/>
<path d="M398.485 132.742H346.169L320.004 178.053L346.169 223.363H398.485L424.65 178.053L398.485 132.742Z" fill="url(#paint1_linear_762_3308)"/>
<path d="M46.1003 234.428H-6.21628L-32.3806 279.739L-6.21628 325.061H46.1003L72.2646 279.739L46.1003 234.428Z" fill="url(#paint2_linear_762_3308)"/>
<path d="M134.426 185.3H82.1094L55.9451 230.611L82.1094 275.921H134.426L160.59 230.611L134.426 185.3Z" fill="url(#paint3_linear_762_3308)"/>
<path d="M222.293 234.573H169.976L143.812 279.896L169.976 325.206H222.293L248.457 279.896L222.293 234.573Z" fill="url(#paint4_linear_762_3308)"/>
<path d="M310.618 185.445H258.302L232.137 230.756L258.302 276.066H310.618L336.783 230.756L310.618 185.445Z" fill="url(#paint5_linear_762_3308)"/>
<path d="M398.485 234.718H346.169L320.004 280.041L346.169 325.351H398.485L424.65 280.041L398.485 234.718Z" fill="url(#paint6_linear_762_3308)"/>
<path d="M46.1003 336.416H-6.21628L-32.3806 381.726L-6.21628 427.036H46.1003L72.2646 381.726L46.1003 336.416Z" fill="url(#paint7_linear_762_3308)"/>
<path d="M222.293 336.561H169.976L143.812 381.871L169.976 427.181H222.293L248.457 381.871L222.293 336.561Z" fill="url(#paint8_linear_762_3308)"/>
<path d="M310.618 287.433H258.302L232.137 332.744L258.302 378.054H310.618L336.783 332.744L310.618 287.433Z" fill="url(#paint9_linear_762_3308)"/>
<path d="M398.485 336.706H346.169L320.004 382.016L346.169 427.326H398.485L424.65 382.016L398.485 336.706Z" fill="url(#paint10_linear_762_3308)"/>
<path d="M486.811 287.578H434.494L408.33 332.889L434.494 378.199H486.811L512.975 332.889L486.811 287.578Z" fill="url(#paint11_linear_762_3308)"/>
<path d="M46.1003 438.403H-6.21628L-32.3806 483.714L-6.21628 529.024H46.1003L72.2646 483.714L46.1003 438.403Z" fill="url(#paint12_linear_762_3308)"/>
<path d="M134.426 389.264H82.1094L55.9451 434.574L82.1094 479.885H134.426L160.59 434.574L134.426 389.264Z" fill="url(#paint13_linear_762_3308)"/>
<path d="M222.293 438.549H169.976L143.812 483.859L169.976 529.169H222.293L248.457 483.859L222.293 438.549Z" fill="url(#paint14_linear_762_3308)"/>
<path d="M310.618 389.409H258.302L232.137 434.719L258.302 480.03H310.618L336.783 434.719L310.618 389.409Z" fill="url(#paint15_linear_762_3308)"/>
<path d="M486.811 389.554H434.494L408.33 434.864L434.494 480.175H486.811L512.975 434.864L486.811 389.554Z" fill="url(#paint16_linear_762_3308)"/>
<path d="M46.1003 540.379H-6.21628L-32.3806 585.69L-6.21628 631H46.1003L72.2646 585.69L46.1003 540.379Z" fill="url(#paint17_linear_762_3308)"/>
<path d="M134.426 491.251H82.1094L55.9451 536.562L82.1094 581.872H134.426L160.59 536.562L134.426 491.251Z" fill="url(#paint18_linear_762_3308)"/>
<path d="M310.618 491.397H258.302L232.137 536.707L258.302 582.018H310.618L336.783 536.707L310.618 491.397Z" fill="url(#paint19_linear_762_3308)"/>
</g>
<g opacity="0.27">
<path d="M13.1472 550.333H85.685L121.948 487.531L85.685 424.718H13.1472L-23.1156 487.531L13.1472 550.333Z" stroke="white" stroke-width="1.20796" stroke-miterlimit="10"/>
<path d="M257.396 409.171H329.922L366.184 346.357L329.922 283.543H257.396L221.121 346.357L257.396 409.171Z" stroke="white" stroke-width="1.20796" stroke-miterlimit="10"/>
<path d="M134.945 477.275H207.471L243.734 414.462L207.471 351.648H134.945L98.6826 414.462L134.945 477.275Z" stroke="white" stroke-width="1.20796" stroke-miterlimit="10"/>
<path d="M13.1472 408.966H85.685L121.948 346.152L85.685 283.338H13.1472L-23.1156 346.152L13.1472 408.966Z" stroke="white" stroke-width="1.20796" stroke-miterlimit="10"/>
<path d="M-109.291 477.07H-36.7655L-0.502587 414.256L-36.7655 351.455H-109.291L-145.554 414.256L-109.291 477.07Z" stroke="white" stroke-width="1.20796" stroke-miterlimit="10"/>
<path d="M257.396 267.792H329.922L366.184 204.99L329.922 142.176H257.396L221.121 204.99L257.396 267.792Z" stroke="white" stroke-width="1.20796" stroke-miterlimit="10"/>
<path d="M13.1472 267.599H85.685L121.948 204.785L85.685 141.971H13.1472L-23.1156 204.785L13.1472 267.599Z" stroke="white" stroke-width="1.20796" stroke-miterlimit="10"/>
<path d="M-109.291 335.703H-36.7655L-0.502587 272.889L-36.7655 210.075H-109.291L-145.554 272.889L-109.291 335.703Z" stroke="white" stroke-width="1.20796" stroke-miterlimit="10"/>
<path d="M134.945 194.529H207.471L243.734 131.728L207.471 68.9141H134.945L98.6826 131.728L134.945 194.529Z" stroke="white" stroke-width="1.20796" stroke-miterlimit="10"/>
<path d="M13.1472 126.231H85.685L121.948 63.4177L85.685 0.604004H13.1472L-23.1156 63.4177L13.1472 126.231Z" stroke="white" stroke-width="1.20796" stroke-miterlimit="10"/>
<path d="M-109.291 194.336H-36.7655L-0.502587 131.522L-36.7655 68.7083H-109.291L-145.554 131.522L-109.291 194.336Z" stroke="white" stroke-width="1.20796" stroke-miterlimit="10"/>
</g>
</g>
<defs>
<linearGradient id="paint0_linear_762_3308" x1="364.687" y1="292.422" x2="-115.814" y2="-34.0402" gradientUnits="userSpaceOnUse">
<stop stop-color="#7D47D6"/>
<stop offset="0.24" stop-color="#0084D6"/>
<stop offset="0.49" stop-color="#0084D6"/>
<stop offset="0.79" stop-color="#00E4E7"/>
<stop offset="1" stop-color="#D7FFFF"/>
</linearGradient>
<linearGradient id="paint1_linear_762_3308" x1="420.265" y1="210.619" x2="-60.2362" y2="-115.843" gradientUnits="userSpaceOnUse">
<stop stop-color="#7D47D6"/>
<stop offset="0.24" stop-color="#0084D6"/>
<stop offset="0.49" stop-color="#0084D6"/>
<stop offset="0.79" stop-color="#00E4E7"/>
<stop offset="1" stop-color="#D7FFFF"/>
</linearGradient>
<linearGradient id="paint2_linear_762_3308" x1="261.696" y1="443.997" x2="-218.804" y2="117.534" gradientUnits="userSpaceOnUse">
<stop stop-color="#7D47D6"/>
<stop offset="0.24" stop-color="#0084D6"/>
<stop offset="0.49" stop-color="#0084D6"/>
<stop offset="0.79" stop-color="#00E4E7"/>
<stop offset="1" stop-color="#D7FFFF"/>
</linearGradient>
<linearGradient id="paint3_linear_762_3308" x1="312.43" y1="369.32" x2="-168.07" y2="42.8581" gradientUnits="userSpaceOnUse">
<stop stop-color="#7D47D6"/>
<stop offset="0.24" stop-color="#0084D6"/>
<stop offset="0.49" stop-color="#0084D6"/>
<stop offset="0.79" stop-color="#00E4E7"/>
<stop offset="1" stop-color="#D7FFFF"/>
</linearGradient>
<linearGradient id="paint4_linear_762_3308" x1="317.275" y1="362.194" x2="-163.226" y2="35.7313" gradientUnits="userSpaceOnUse">
<stop stop-color="#7D47D6"/>
<stop offset="0.24" stop-color="#0084D6"/>
<stop offset="0.49" stop-color="#0084D6"/>
<stop offset="0.79" stop-color="#00E4E7"/>
<stop offset="1" stop-color="#D7FFFF"/>
</linearGradient>
<linearGradient id="paint5_linear_762_3308" x1="368.008" y1="287.518" x2="-112.492" y2="-38.9447" gradientUnits="userSpaceOnUse">
<stop stop-color="#7D47D6"/>
<stop offset="0.24" stop-color="#0084D6"/>
<stop offset="0.49" stop-color="#0084D6"/>
<stop offset="0.79" stop-color="#00E4E7"/>
<stop offset="1" stop-color="#D7FFFF"/>
</linearGradient>
<linearGradient id="paint6_linear_762_3308" x1="372.852" y1="280.391" x2="-107.648" y2="-46.0714" gradientUnits="userSpaceOnUse">
<stop stop-color="#7D47D6"/>
<stop offset="0.24" stop-color="#0084D6"/>
<stop offset="0.49" stop-color="#0084D6"/>
<stop offset="0.79" stop-color="#00E4E7"/>
<stop offset="1" stop-color="#D7FFFF"/>
</linearGradient>
<linearGradient id="paint7_linear_762_3308" x1="214.296" y1="513.768" x2="-266.205" y2="187.305" gradientUnits="userSpaceOnUse">
<stop stop-color="#7D47D6"/>
<stop offset="0.24" stop-color="#0084D6"/>
<stop offset="0.49" stop-color="#0084D6"/>
<stop offset="0.79" stop-color="#00E4E7"/>
<stop offset="1" stop-color="#D7FFFF"/>
</linearGradient>
<linearGradient id="paint8_linear_762_3308" x1="269.874" y1="431.965" x2="-210.627" y2="105.503" gradientUnits="userSpaceOnUse">
<stop stop-color="#7D47D6"/>
<stop offset="0.24" stop-color="#0084D6"/>
<stop offset="0.49" stop-color="#0084D6"/>
<stop offset="0.79" stop-color="#00E4E7"/>
<stop offset="1" stop-color="#D7FFFF"/>
</linearGradient>
<linearGradient id="paint9_linear_762_3308" x1="320.608" y1="357.301" x2="-159.893" y2="30.8391" gradientUnits="userSpaceOnUse">
<stop stop-color="#7D47D6"/>
<stop offset="0.24" stop-color="#0084D6"/>
<stop offset="0.49" stop-color="#0084D6"/>
<stop offset="0.79" stop-color="#00E4E7"/>
<stop offset="1" stop-color="#D7FFFF"/>
</linearGradient>
<linearGradient id="paint10_linear_762_3308" x1="325.452" y1="350.174" x2="-155.049" y2="23.7121" gradientUnits="userSpaceOnUse">
<stop stop-color="#7D47D6"/>
<stop offset="0.24" stop-color="#0084D6"/>
<stop offset="0.49" stop-color="#0084D6"/>
<stop offset="0.79" stop-color="#00E4E7"/>
<stop offset="1" stop-color="#D7FFFF"/>
</linearGradient>
<linearGradient id="paint11_linear_762_3308" x1="376.186" y1="275.499" x2="-104.314" y2="-50.9637" gradientUnits="userSpaceOnUse">
<stop stop-color="#7D47D6"/>
<stop offset="0.24" stop-color="#0084D6"/>
<stop offset="0.49" stop-color="#0084D6"/>
<stop offset="0.79" stop-color="#00E4E7"/>
<stop offset="1" stop-color="#D7FFFF"/>
</linearGradient>
<linearGradient id="paint12_linear_762_3308" x1="166.884" y1="583.551" x2="-313.617" y2="257.089" gradientUnits="userSpaceOnUse">
<stop stop-color="#7D47D6"/>
<stop offset="0.24" stop-color="#0084D6"/>
<stop offset="0.49" stop-color="#0084D6"/>
<stop offset="0.79" stop-color="#00E4E7"/>
<stop offset="1" stop-color="#D7FFFF"/>
</linearGradient>
<linearGradient id="paint13_linear_762_3308" x1="217.618" y1="508.876" x2="-262.883" y2="182.413" gradientUnits="userSpaceOnUse">
<stop stop-color="#7D47D6"/>
<stop offset="0.24" stop-color="#0084D6"/>
<stop offset="0.49" stop-color="#0084D6"/>
<stop offset="0.79" stop-color="#00E4E7"/>
<stop offset="1" stop-color="#D7FFFF"/>
</linearGradient>
<linearGradient id="paint14_linear_762_3308" x1="222.462" y1="501.749" x2="-258.039" y2="175.287" gradientUnits="userSpaceOnUse">
<stop stop-color="#7D47D6"/>
<stop offset="0.24" stop-color="#0084D6"/>
<stop offset="0.49" stop-color="#0084D6"/>
<stop offset="0.79" stop-color="#00E4E7"/>
<stop offset="1" stop-color="#D7FFFF"/>
</linearGradient>
<linearGradient id="paint15_linear_762_3308" x1="273.196" y1="427.073" x2="-207.305" y2="100.611" gradientUnits="userSpaceOnUse">
<stop stop-color="#7D47D6"/>
<stop offset="0.24" stop-color="#0084D6"/>
<stop offset="0.49" stop-color="#0084D6"/>
<stop offset="0.79" stop-color="#00E4E7"/>
<stop offset="1" stop-color="#D7FFFF"/>
</linearGradient>
<linearGradient id="paint16_linear_762_3308" x1="328.774" y1="345.27" x2="-151.727" y2="18.8078" gradientUnits="userSpaceOnUse">
<stop stop-color="#7D47D6"/>
<stop offset="0.24" stop-color="#0084D6"/>
<stop offset="0.49" stop-color="#0084D6"/>
<stop offset="0.79" stop-color="#00E4E7"/>
<stop offset="1" stop-color="#D7FFFF"/>
</linearGradient>
<linearGradient id="paint17_linear_762_3308" x1="119.484" y1="653.323" x2="-361.017" y2="326.861" gradientUnits="userSpaceOnUse">
<stop stop-color="#7D47D6"/>
<stop offset="0.24" stop-color="#0084D6"/>
<stop offset="0.49" stop-color="#0084D6"/>
<stop offset="0.79" stop-color="#00E4E7"/>
<stop offset="1" stop-color="#D7FFFF"/>
</linearGradient>
<linearGradient id="paint18_linear_762_3308" x1="170.218" y1="578.647" x2="-310.283" y2="252.185" gradientUnits="userSpaceOnUse">
<stop stop-color="#7D47D6"/>
<stop offset="0.24" stop-color="#0084D6"/>
<stop offset="0.49" stop-color="#0084D6"/>
<stop offset="0.79" stop-color="#00E4E7"/>
<stop offset="1" stop-color="#D7FFFF"/>
</linearGradient>
<linearGradient id="paint19_linear_762_3308" x1="225.796" y1="496.845" x2="-254.705" y2="170.382" gradientUnits="userSpaceOnUse">
<stop stop-color="#7D47D6"/>
<stop offset="0.24" stop-color="#0084D6"/>
<stop offset="0.49" stop-color="#0084D6"/>
<stop offset="0.79" stop-color="#00E4E7"/>
<stop offset="1" stop-color="#D7FFFF"/>
</linearGradient>
<clipPath id="clip0_762_3308">
<rect width="903.467" height="631" fill="white" transform="translate(-390.491)"/>
</clipPath>
</defs>
</svg>
