<svg width="59" height="59" viewBox="0 0 59 59" fill="none" xmlns="http://www.w3.org/2000/svg">
<g id="icons8:chevron-down-round">
<path id="Vector" d="M29.5 5.53125C16.284 5.53125 5.53125 16.284 5.53125 29.5C5.53125 42.716 16.284 53.4688 29.5 53.4688C42.716 53.4688 53.4688 42.716 53.4688 29.5C53.4688 16.284 42.716 5.53125 29.5 5.53125ZM29.5 9.21875C40.7229 9.21875 49.7812 18.2771 49.7812 29.5C49.7812 40.7229 40.7229 49.7812 29.5 49.7812C18.2771 49.7812 9.21875 40.7229 9.21875 29.5C9.21875 18.2771 18.2771 9.21875 29.5 9.21875ZM19.765 23.5631L17.11 26.2181L28.1725 37.2806L29.5 38.5454L30.8275 37.2788L41.89 26.2163L39.235 23.5613L29.5 33.3055L19.765 23.5668V23.5631Z" fill="#EB267A"/>
</g>
</svg>
