<svg width="49" height="48" viewBox="0 0 49 48" fill="none" xmlns="http://www.w3.org/2000/svg">
<g id="system-uicons:mail">
<g id="Group">
<path id="Vector" fill-rule="evenodd" clip-rule="evenodd" d="M8.76514 14.8571V33.1428C8.76514 34.3552 9.24677 35.518 10.1041 36.3753C10.9614 37.2326 12.1241 37.7142 13.3366 37.7142H36.1937C37.4061 37.7142 38.5689 37.2326 39.4262 36.3753C40.2835 35.518 40.7651 34.3552 40.7651 33.1428V14.8571C40.7651 13.6447 40.2835 12.4819 39.4262 11.6246C38.5689 10.7673 37.4061 10.2856 36.1937 10.2856H13.3366C12.1241 10.2856 10.9614 10.7673 10.1041 11.6246C9.24677 12.4819 8.76514 13.6447 8.76514 14.8571Z" stroke="#EB267A" stroke-width="2.28571" stroke-linecap="round" stroke-linejoin="round"/>
<path id="Vector_2" d="M13.3367 17.1428L24.7652 24L36.1938 17.1428" stroke="#EB267A" stroke-width="2.28571" stroke-linecap="round" stroke-linejoin="round"/>
</g>
</g>
</svg>
