<svg width="49" height="48" viewBox="0 0 49 48" fill="none" xmlns="http://www.w3.org/2000/svg">
<g id="fluent:call-20-regular">
<path id="Vector" d="M17.0241 4.95871L15.3033 5.47711C13.7711 5.93918 12.4028 6.82934 11.3594 8.04281C10.316 9.25628 9.64095 10.7426 9.41372 12.3267C8.70092 17.2899 10.2945 23.0931 14.1369 29.7483C17.9697 36.3867 22.1889 40.6635 26.8329 42.5355C28.3251 43.1369 29.9585 43.2971 31.5391 42.9972C33.1196 42.6972 34.5808 41.9497 35.7489 40.8435L37.0497 39.6099C37.8944 38.8105 38.4201 37.7316 38.5291 36.5737C38.6382 35.4158 38.3231 34.2578 37.6425 33.3147L34.3881 28.8027C33.9481 28.1936 33.3286 27.7374 32.6163 27.4981C31.904 27.2588 31.1346 27.2484 30.4161 27.4683L25.4937 28.9731L25.3665 28.9971C24.8241 29.0763 23.5713 27.9027 22.0113 25.2003C20.3793 22.3731 20.0433 20.7195 20.4921 20.2923L22.9953 17.9571C23.9107 17.1038 24.536 15.9854 24.7835 14.7587C25.031 13.532 24.8883 12.2586 24.3753 11.1171L22.7865 7.58671C22.3088 6.52434 21.461 5.67194 20.4012 5.18842C19.3415 4.70491 18.1396 4.62326 17.0241 4.95871ZM20.6001 8.57071L22.1841 12.1011C22.4926 12.7857 22.5789 13.5497 22.4308 14.2858C22.2827 15.0219 21.9077 15.6931 21.3585 16.2051L18.8481 18.5427C17.2425 20.0643 17.7753 22.6611 19.9353 26.4003C21.9657 29.9187 23.8185 31.6563 25.8105 31.3539L26.1081 31.2915L31.1193 29.7627C31.3589 29.6891 31.6154 29.6924 31.853 29.772C32.0906 29.8516 32.2973 30.0037 32.4441 30.2067L35.6985 34.7187C36.0393 35.1902 36.1972 35.7694 36.1429 36.3486C36.0886 36.9278 35.8258 37.4676 35.4033 37.8675L34.1001 39.1011C33.2658 39.8908 32.2222 40.4243 31.0935 40.6383C29.9648 40.8523 28.7984 40.7378 27.7329 40.3083C23.6577 38.6667 19.8057 34.7619 16.2177 28.5483C12.6201 22.3203 11.1633 17.0235 11.7897 12.6675C11.9519 11.5357 12.434 10.4739 13.1794 9.6069C13.9247 8.73994 14.9023 8.10398 15.9969 7.77391L17.7177 7.25551C18.2756 7.08787 18.8755 7.12887 19.4054 7.37085C19.9353 7.61284 20.3591 8.03931 20.5977 8.57071H20.6001Z" fill="#EB267A"/>
</g>
</svg>
