<svg width="59" height="59" viewBox="0 0 59 59" fill="none" xmlns="http://www.w3.org/2000/svg">
<path d="M29.5 4.91675C43.0774 4.91675 54.0833 15.9227 54.0833 29.5001C54.0833 43.0775 43.0774 54.0834 29.5 54.0834H4.91665L12.1171 46.883C9.83094 44.6027 8.01792 41.8932 6.78223 38.9101C5.54654 35.9269 4.91253 32.729 4.91665 29.5001C4.91665 15.9227 15.9226 4.91675 29.5 4.91675ZM39.3333 31.9584H19.6666C19.6666 34.5664 20.7027 37.0675 22.5468 38.9116C24.3909 40.7557 26.892 41.7917 29.5 41.7917C32.1079 41.7917 34.6091 40.7557 36.4532 38.9116C38.2973 37.0675 39.3333 34.5664 39.3333 31.9584Z" fill="#EB267A"/>
</svg>
