<svg width="49" height="48" viewBox="0 0 49 48" fill="none" xmlns="http://www.w3.org/2000/svg">
<g clip-path="url(#clip0_920_1187)">
<path d="M37.3767 33.1201C37.9527 33.6961 38.3367 34.3681 38.5287 35.1361C38.7207 35.9041 38.7207 36.6721 38.5287 37.4401C38.3367 38.2081 37.9527 38.8801 37.3767 39.4561L36.2727 40.5601C36.1447 40.6881 35.9767 40.7521 35.7687 40.7521C35.5607 40.7521 35.3847 40.6801 35.2407 40.5361C35.0967 40.3921 35.0247 40.2161 35.0247 40.0081C35.0247 39.8001 35.0887 39.6321 35.2167 39.5041L36.3207 38.4001C36.8967 37.8241 37.1847 37.1201 37.1847 36.2881C37.1847 35.4561 36.8967 34.7521 36.3207 34.1761L32.1447 30.0001C31.5367 29.4241 30.8247 29.1361 30.0087 29.1361C29.1927 29.1361 28.4807 29.4241 27.8727 30.0001L26.1447 31.7281C25.4407 32.4321 24.5927 32.7841 23.6007 32.7841C22.6087 32.7841 21.7447 32.4321 21.0087 31.7281L13.2807 24.0001C12.5767 23.2961 12.2247 22.4401 12.2247 21.4321C12.2247 20.4241 12.5767 19.5681 13.2807 18.8641L15.0087 17.1361C15.6167 16.5601 15.9207 15.8561 15.9207 15.0241C15.9207 14.1921 15.6167 13.4881 15.0087 12.9121L10.8327 8.73606C10.2567 8.12806 9.55266 7.82406 8.72066 7.82406C7.88866 7.82406 7.18466 8.12806 6.60866 8.73606L5.07266 10.2241C3.72866 11.5681 2.82466 13.1441 2.36066 14.9521C1.89666 16.7601 1.89666 18.5681 2.36066 20.3761C2.82466 22.1841 3.72866 23.7601 5.07266 25.1041L19.9527 39.9361C21.4247 41.4081 23.1767 42.3601 25.2087 42.7921C27.2407 43.2241 29.2327 43.0561 31.1847 42.2881C31.3767 42.2241 31.5687 42.2321 31.7607 42.3121C31.9527 42.3921 32.0807 42.5281 32.1447 42.7201C32.2087 42.9121 32.2007 43.1041 32.1207 43.2961C32.0407 43.4881 31.9047 43.6161 31.7127 43.6801C29.5047 44.5761 27.2407 44.7761 24.9207 44.2801C22.6007 43.7841 20.5927 42.6881 18.8967 40.9921L4.01666 26.1601C2.48066 24.6241 1.44866 22.8241 0.920658 20.7601C0.392658 18.6961 0.392658 16.6321 0.920658 14.5681C1.44866 12.5041 2.48066 10.7041 4.01666 9.16806L5.55266 7.68006C6.44866 6.78406 7.51266 6.33606 8.74466 6.33606C9.97666 6.33606 11.0407 6.78406 11.9367 7.68006L16.1127 11.8561C16.6887 12.4321 17.0727 13.1041 17.2647 13.8721C17.4567 14.6401 17.4567 15.4081 17.2647 16.1761C17.0727 16.9441 16.6887 17.6161 16.1127 18.1921L14.3367 19.9201C13.9207 20.3361 13.7127 20.8401 13.7127 21.4321C13.7127 22.0241 13.9207 22.5281 14.3367 22.9441L22.0647 30.6721C22.5127 31.0881 23.0247 31.2961 23.6007 31.2961C24.1767 31.2961 24.6727 31.0881 25.0887 30.6721L26.8167 28.9441C27.7127 28.0481 28.7767 27.6001 30.0087 27.6001C31.2407 27.6001 32.3047 28.0481 33.2007 28.9441L37.3767 33.1201ZM41.7447 0.43206H22.9767C21.9527 0.43206 21.0727 0.80006 20.3367 1.53606C19.6007 2.27206 19.2327 3.16806 19.2327 4.22406V11.7121C19.2327 12.7361 19.6007 13.6161 20.3367 14.3521C21.0727 15.0881 21.9527 15.4561 22.9767 15.4561H23.7447V17.9041C23.7447 18.0961 23.8167 18.2641 23.9607 18.4081C24.1047 18.5521 24.2727 18.6241 24.4647 18.6241H24.5127C24.6087 18.6241 24.8647 18.5121 25.2807 18.2881L30.2247 15.3601C30.3847 15.2321 30.4887 15.0721 30.5367 14.8801C30.5847 14.6881 30.5607 14.4961 30.4647 14.3041C30.3687 14.1121 30.2167 13.9921 30.0087 13.9441C29.8007 13.8961 29.6167 13.9361 29.4567 14.0641L25.2327 16.5601V14.6881C25.2327 14.4961 25.1607 14.3281 25.0167 14.1841C24.8727 14.0401 24.6887 13.9681 24.4647 13.9681H22.9767C22.3687 13.9681 21.8407 13.7441 21.3927 13.2961C20.9447 12.8481 20.7207 12.3201 20.7207 11.7121V4.22406C20.7207 3.58406 20.9447 3.04806 21.3927 2.61606C21.8407 2.18406 22.3687 1.96806 22.9767 1.96806H41.7447C42.3847 1.96806 42.9207 2.18406 43.3527 2.61606C43.7847 3.04806 44.0007 3.58406 44.0007 4.22406V11.7121C44.0007 12.3201 43.7847 12.8481 43.3527 13.2961C42.9207 13.7441 42.3847 13.9681 41.7447 13.9681H33.9207C33.6967 13.9681 33.5127 14.0401 33.3687 14.1841C33.2247 14.3281 33.1527 14.4961 33.1527 14.6881C33.1527 14.8801 33.2247 15.0561 33.3687 15.2161C33.5127 15.3761 33.6967 15.4561 33.9207 15.4561H41.7447C42.7687 15.4561 43.6487 15.0881 44.3847 14.3521C45.1207 13.6161 45.4887 12.7361 45.4887 11.7121V4.22406C45.4887 3.16806 45.1207 2.27206 44.3847 1.53606C43.6487 0.80006 42.7687 0.43206 41.7447 0.43206ZM25.1367 8.68806C25.7127 8.68806 26.2007 8.48806 26.6007 8.08806C27.0007 7.68806 27.2007 7.20006 27.2007 6.62406C27.2007 6.04806 27.0007 5.56006 26.6007 5.16006C26.2007 4.76006 25.7127 4.56006 25.1367 4.56006H23.8407C23.6167 4.56006 23.4327 4.63206 23.2887 4.77606C23.1447 4.92006 23.0727 5.10406 23.0727 5.32806C23.0727 5.55206 23.1447 5.73606 23.2887 5.88006C23.4327 6.02406 23.6167 6.09606 23.8407 6.09606H25.1367C25.2967 6.09606 25.4327 6.14406 25.5447 6.24006C25.6567 6.33606 25.7127 6.46406 25.7127 6.62406C25.7127 6.78406 25.6567 6.92006 25.5447 7.03206C25.4327 7.14406 25.2967 7.20006 25.1367 7.20006C24.5607 7.20006 24.0727 7.40006 23.6727 7.80006C23.2727 8.20006 23.0727 8.68806 23.0727 9.26406V10.5601C23.0727 10.7841 23.1447 10.9681 23.2887 11.1121C23.4327 11.2561 23.6167 11.3281 23.8407 11.3281H26.4807C26.6727 11.3281 26.8407 11.2561 26.9847 11.1121C27.1287 10.9681 27.2007 10.7841 27.2007 10.5601C27.2007 10.3361 27.1287 10.1601 26.9847 10.0321C26.8407 9.90406 26.6727 9.84006 26.4807 9.84006H24.5607V9.26406C24.5607 9.10406 24.6247 8.96806 24.7527 8.85606C24.8807 8.74406 25.0087 8.68806 25.1367 8.68806ZM31.7127 11.3281C31.9367 11.3281 32.1207 11.2561 32.2647 11.1121C32.4087 10.9681 32.4807 10.7841 32.4807 10.5601V5.32806C32.4807 5.10406 32.4087 4.92006 32.2647 4.77606C32.1207 4.63206 31.9367 4.56006 31.7127 4.56006C31.4887 4.56006 31.3047 4.63206 31.1607 4.77606C31.0167 4.92006 30.9447 5.10406 30.9447 5.32806V7.20006H29.8407V5.32806C29.8407 5.10406 29.7687 4.92006 29.6247 4.77606C29.4807 4.63206 29.2967 4.56006 29.0727 4.56006C28.8487 4.56006 28.6727 4.63206 28.5447 4.77606C28.4167 4.92006 28.3527 5.10406 28.3527 5.32806V7.96806C28.3527 8.16006 28.4247 8.32806 28.5687 8.47206C28.7127 8.61606 28.8807 8.68806 29.0727 8.68806H30.9447V10.5601C30.9447 10.7841 31.0167 10.9681 31.1607 11.1121C31.3047 11.2561 31.4887 11.3281 31.7127 11.3281ZM39.0567 11.3281C39.4407 11.3281 39.6807 11.1521 39.7767 10.8001L41.6007 5.56806C41.6647 5.31206 41.6247 5.08006 41.4807 4.87206C41.3367 4.66406 41.1367 4.56006 40.8807 4.56006H38.2887C38.0647 4.56006 37.8807 4.63206 37.7367 4.77606C37.5927 4.92006 37.5207 5.10406 37.5207 5.32806C37.5207 5.55206 37.5927 5.73606 37.7367 5.88006C37.8807 6.02406 38.0647 6.09606 38.2887 6.09606H39.8247L38.3367 10.3201C38.2727 10.5441 38.3127 10.7681 38.4567 10.9921C38.6007 11.2161 38.8007 11.3281 39.0567 11.3281ZM35.0247 10.7521L36.3687 5.52006C36.4327 5.29606 36.4087 5.09606 36.2967 4.92006C36.1847 4.74406 36.0247 4.63206 35.8167 4.58406C35.6087 4.53606 35.4087 4.56806 35.2167 4.68006C35.0247 4.79206 34.9127 4.94406 34.8807 5.13606L33.5847 10.4161C33.5527 10.6081 33.5847 10.7841 33.6807 10.9441C33.7767 11.1041 33.9287 11.2161 34.1367 11.2801C34.3447 11.3441 34.5287 11.3201 34.6887 11.2081C34.8487 11.0961 34.9607 10.9441 35.0247 10.7521Z" fill="#EB267A"/>
</g>
<defs>
<clipPath id="clip0_920_1187">
<rect width="48" height="48" fill="white" transform="matrix(1 0 0 -1 0.510254 48)"/>
</clipPath>
</defs>
</svg>
