<svg width="48" height="48" viewBox="0 0 48 48" fill="none" xmlns="http://www.w3.org/2000/svg">
<g id="formkit:time">
<path id="Vector" d="M24 45C12.42 45 3 35.58 3 24C3 12.42 12.42 3 24 3C35.58 3 45 12.42 45 24C45 35.58 35.58 45 24 45ZM24 6C14.07 6 6 14.07 6 24C6 33.93 14.07 42 24 42C33.93 42 42 33.93 42 24C42 14.07 33.93 6 24 6Z" fill="#EB267A"/>
<path id="Vector_2" d="M30.0001 31.5C29.7301 31.5 29.4601 31.44 29.2201 31.29L21.7201 26.79C21.498 26.6565 21.3146 26.4672 21.1883 26.2409C21.062 26.0146 20.9971 25.7592 21.0001 25.5V13.5C21.0001 12.66 21.6601 12 22.5001 12C23.3401 12 24.0001 12.66 24.0001 13.5V24.66L30.7801 28.71C31.0594 28.8812 31.2752 29.1387 31.3949 29.4436C31.5146 29.7485 31.5317 30.0841 31.4435 30.3995C31.3553 30.7149 31.1667 30.993 30.9062 31.1916C30.6457 31.3902 30.3276 31.4985 30.0001 31.5Z" fill="#EB267A"/>
</g>
</svg>
